<svg width="180" height="193" viewBox="0 0 180 193" fill="none" xmlns="http://www.w3.org/2000/svg">
<rect x="2.5" y="14.5574" width="175" height="175" rx="27.5" fill="black" stroke="black" stroke-width="5"/>
<path d="M42.4258 167V39.0312H87.25C102.777 39.0312 114.555 42.0195 122.582 47.9961C130.609 53.9141 134.623 62.6152 134.623 74.0996C134.623 80.3691 133.012 85.9062 129.789 90.7109C126.566 95.457 122.084 98.9434 116.342 101.17C122.904 102.811 128.061 106.121 131.811 111.102C135.619 116.082 137.523 122.176 137.523 129.383C137.523 141.688 133.598 151.004 125.746 157.332C117.895 163.66 106.703 166.883 92.1719 167H42.4258ZM68.793 111.277V145.818H91.3809C97.5918 145.818 102.426 144.354 105.883 141.424C109.398 138.436 111.156 134.334 111.156 129.119C111.156 117.4 105.092 111.453 92.9629 111.277H68.793ZM68.793 92.6445H88.3047C101.605 92.4102 108.256 87.1074 108.256 76.7363C108.256 70.9355 106.557 66.7754 103.158 64.2559C99.8184 61.6777 94.5156 60.3887 87.25 60.3887H68.793V92.6445Z" fill="white"/>
</svg>
