<svg width="180" height="192" viewBox="0 0 180 192" fill="none" xmlns="http://www.w3.org/2000/svg">
<rect x="2.5" y="13.8044" width="175" height="175" rx="27.5" fill="#12A232" stroke="black" stroke-width="5"/>
<path d="M44.4258 167V39.0312H89.25C104.777 39.0312 116.555 42.0195 124.582 47.9961C132.609 53.9141 136.623 62.6152 136.623 74.0996C136.623 80.3691 135.012 85.9062 131.789 90.7109C128.566 95.457 124.084 98.9434 118.342 101.17C124.904 102.811 130.061 106.121 133.811 111.102C137.619 116.082 139.523 122.176 139.523 129.383C139.523 141.688 135.598 151.004 127.746 157.332C119.895 163.66 108.703 166.883 94.1719 167H44.4258ZM70.793 111.277V145.818H93.3809C99.5918 145.818 104.426 144.354 107.883 141.424C111.398 138.436 113.156 134.334 113.156 129.119C113.156 117.4 107.092 111.453 94.9629 111.277H70.793ZM70.793 92.6445H90.3047C103.605 92.4102 110.256 87.1074 110.256 76.7363C110.256 70.9355 108.557 66.7754 105.158 64.2559C101.818 61.6777 96.5156 60.3887 89.25 60.3887H70.793V92.6445Z" fill="black"/>
</svg>
