<svg width="180" height="192" viewBox="0 0 180 192" fill="none" xmlns="http://www.w3.org/2000/svg">
<rect x="2.5" y="14.1912" width="175" height="175" rx="27.5" fill="#FFC700" stroke="black" stroke-width="5"/>
<path d="M140.271 52.918H99.1387V167H82.3516V52.918H41.3066V39.0312H140.271V52.918Z" fill="white"/>
<path d="M140.271 52.918V55.918H143.271V52.918H140.271ZM99.1387 52.918V49.918H96.1387V52.918H99.1387ZM99.1387 167V170H102.139V167H99.1387ZM82.3516 167H79.3516V170H82.3516V167ZM82.3516 52.918H85.3516V49.918H82.3516V52.918ZM41.3066 52.918H38.3066V55.918H41.3066V52.918ZM41.3066 39.0312V36.0312H38.3066V39.0312H41.3066ZM140.271 39.0312H143.271V36.0312H140.271V39.0312ZM140.271 49.918H99.1387V55.918H140.271V49.918ZM96.1387 52.918V167H102.139V52.918H96.1387ZM99.1387 164H82.3516V170H99.1387V164ZM85.3516 167V52.918H79.3516V167H85.3516ZM82.3516 49.918H41.3066V55.918H82.3516V49.918ZM44.3066 52.918V39.0312H38.3066V52.918H44.3066ZM41.3066 42.0312H140.271V36.0312H41.3066V42.0312ZM137.271 39.0312V52.918H143.271V39.0312H137.271Z" fill="black"/>
</svg>
