<svg width="430" height="180" viewBox="0 0 430 180" fill="none" xmlns="http://www.w3.org/2000/svg">
<rect x="2.5" y="2.5" width="425" height="175" rx="27.5" fill="black" stroke="black" stroke-width="5"/>
<path d="M297.182 90C297.182 136.392 260.428 174 215.091 174C169.753 174 133 136.392 133 90C133 43.6081 169.753 6 215.091 6C260.428 6 297.182 43.6081 297.182 90ZM165.836 90C165.836 117.835 187.888 140.4 215.091 140.4C242.293 140.4 264.345 117.835 264.345 90C264.345 62.1648 242.293 39.6 215.091 39.6C187.888 39.6 165.836 62.1648 165.836 90Z" fill="white"/>
<rect x="55" y="58" width="320" height="65" rx="1" fill="white"/>
<path d="M60.9199 107V74.2969H72.375C76.3431 74.2969 79.3529 75.0605 81.4043 76.5879C83.4557 78.1003 84.4814 80.3239 84.4814 83.2588C84.4814 84.861 84.0697 86.276 83.2461 87.5039C82.4225 88.7168 81.277 89.6077 79.8096 90.1768C81.4867 90.596 82.8044 91.4421 83.7627 92.7148C84.736 93.9876 85.2227 95.5449 85.2227 97.3867C85.2227 100.531 84.2194 102.912 82.2129 104.529C80.2064 106.146 77.3464 106.97 73.6328 107H60.9199ZM67.6582 92.7598V101.587H73.4307C75.0179 101.587 76.2533 101.213 77.1367 100.464C78.0352 99.7002 78.4844 98.652 78.4844 97.3193C78.4844 94.3245 76.9346 92.8047 73.835 92.7598H67.6582ZM67.6582 87.998H72.6445C76.0436 87.9382 77.7432 86.583 77.7432 83.9326C77.7432 82.4502 77.3089 81.387 76.4404 80.7432C75.5869 80.0843 74.2318 79.7549 72.375 79.7549H67.6582V87.998ZM97.0371 101.587H111.345V107H90.2988V74.2969H97.0371V101.587ZM134.143 100.262H122.328L120.082 107H112.917L125.091 74.2969H131.335L143.576 107H136.411L134.143 100.262ZM124.147 94.8037H132.323L128.213 82.5625L124.147 94.8037ZM171.81 96.1064C171.555 99.6253 170.252 102.396 167.901 104.417C165.565 106.438 162.481 107.449 158.647 107.449C154.455 107.449 151.153 106.042 148.742 103.227C146.346 100.396 145.148 96.5182 145.148 91.5918V89.5928C145.148 86.4482 145.702 83.6781 146.811 81.2822C147.919 78.8864 149.498 77.0521 151.55 75.7793C153.616 74.4915 156.012 73.8477 158.737 73.8477C162.511 73.8477 165.55 74.8584 167.856 76.8799C170.162 78.9014 171.495 81.7389 171.854 85.3926H165.116C164.951 83.2812 164.36 81.7539 163.342 80.8105C162.339 79.8522 160.804 79.373 158.737 79.373C156.491 79.373 154.807 80.1816 153.684 81.7988C152.576 83.401 152.007 85.8942 151.977 89.2783V91.749C151.977 95.2829 152.508 97.8659 153.571 99.498C154.649 101.13 156.341 101.946 158.647 101.946C160.729 101.946 162.279 101.475 163.297 100.531C164.33 99.5729 164.922 98.098 165.071 96.1064H171.81ZM186.477 93.8828L182.973 97.6562V107H176.234V74.2969H182.973V89.1211L185.938 85.0557L194.271 74.2969H202.559L190.946 88.8291L202.896 107H194.877L186.477 93.8828ZM240.158 79.7549H230.141V107H223.402V79.7549H213.52V74.2969H240.158V79.7549ZM251.187 107H244.448V74.2969H251.187V107ZM283.126 96.1064C282.871 99.6253 281.569 102.396 279.218 104.417C276.882 106.438 273.797 107.449 269.964 107.449C265.771 107.449 262.469 106.042 260.059 103.227C257.663 100.396 256.465 96.5182 256.465 91.5918V89.5928C256.465 86.4482 257.019 83.6781 258.127 81.2822C259.235 78.8864 260.815 77.0521 262.866 75.7793C264.933 74.4915 267.328 73.8477 270.054 73.8477C273.827 73.8477 276.867 74.8584 279.173 76.8799C281.479 78.9014 282.812 81.7389 283.171 85.3926H276.433C276.268 83.2812 275.676 81.7539 274.658 80.8105C273.655 79.8522 272.12 79.373 270.054 79.373C267.808 79.373 266.123 80.1816 265 81.7988C263.892 83.401 263.323 85.8942 263.293 89.2783V91.749C263.293 95.2829 263.825 97.8659 264.888 99.498C265.966 101.13 267.658 101.946 269.964 101.946C272.045 101.946 273.595 101.475 274.613 100.531C275.646 99.5729 276.238 98.098 276.388 96.1064H283.126ZM297.793 93.8828L294.289 97.6562V107H287.551V74.2969H294.289V89.1211L297.254 85.0557L305.587 74.2969H313.875L302.263 88.8291L314.212 107H306.193L297.793 93.8828ZM336.426 92.8271H323.488V101.587H338.672V107H316.75V74.2969H338.627V79.7549H323.488V87.5488H336.426V92.8271ZM367.691 79.7549H357.674V107H350.936V79.7549H341.053V74.2969H367.691V79.7549Z" fill="black"/>
</svg>
