<svg width="430" height="180" viewBox="0 0 430 180" fill="none" xmlns="http://www.w3.org/2000/svg">
<rect x="2.5" y="2.5" width="425" height="175" rx="27.5" fill="#FFC700" stroke="black" stroke-width="5"/>
<path d="M145.617 48.7344H112.711V140H99.2812V48.7344H66.4453V37.625H145.617V48.7344ZM211.711 113.281H168.82L159.188 140H145.266L184.359 37.625H196.172L235.336 140H221.484L211.711 113.281ZM172.898 102.172H207.703L190.266 54.2891L172.898 102.172ZM282.516 76.8594L307.055 37.625H322.945L290.602 88.3906L323.719 140H307.688L282.516 100.062L257.203 140H241.242L274.43 88.3906L242.016 37.625H257.836L282.516 76.8594ZM353.883 140H340.383V37.625H353.883V140Z" fill="white"/>
<path d="M145.617 48.7344V51.7344H148.617V48.7344H145.617ZM112.711 48.7344V45.7344H109.711V48.7344H112.711ZM112.711 140V143H115.711V140H112.711ZM99.2812 140H96.2812V143H99.2812V140ZM99.2812 48.7344H102.281V45.7344H99.2812V48.7344ZM66.4453 48.7344H63.4453V51.7344H66.4453V48.7344ZM66.4453 37.625V34.625H63.4453V37.625H66.4453ZM145.617 37.625H148.617V34.625H145.617V37.625ZM145.617 45.7344H112.711V51.7344H145.617V45.7344ZM109.711 48.7344V140H115.711V48.7344H109.711ZM112.711 137H99.2812V143H112.711V137ZM102.281 140V48.7344H96.2812V140H102.281ZM99.2812 45.7344H66.4453V51.7344H99.2812V45.7344ZM69.4453 48.7344V37.625H63.4453V48.7344H69.4453ZM66.4453 40.625H145.617V34.625H66.4453V40.625ZM142.617 37.625V48.7344H148.617V37.625H142.617ZM211.711 113.281L214.528 112.251L213.808 110.281H211.711V113.281ZM168.82 113.281V110.281H166.713L165.998 112.264L168.82 113.281ZM159.188 140V143H161.295L162.01 141.017L159.188 140ZM145.266 140L142.463 138.93L140.909 143H145.266V140ZM184.359 37.625V34.625H182.294L181.557 36.5548L184.359 37.625ZM196.172 37.625L198.974 36.5531L198.236 34.625H196.172V37.625ZM235.336 140V143H239.696L238.138 138.928L235.336 140ZM221.484 140L218.667 141.031L219.387 143H221.484V140ZM172.898 102.172L170.078 101.149L168.619 105.172H172.898V102.172ZM207.703 102.172V105.172H211.988L210.522 101.145L207.703 102.172ZM190.266 54.2891L193.085 53.2625L190.26 45.5063L187.445 53.2662L190.266 54.2891ZM211.711 110.281H168.82V116.281H211.711V110.281ZM165.998 112.264L156.365 138.983L162.01 141.017L171.643 114.299L165.998 112.264ZM159.188 137H145.266V143H159.188V137ZM148.068 141.07L187.162 38.6952L181.557 36.5548L142.463 138.93L148.068 141.07ZM184.359 40.625H196.172V34.625H184.359V40.625ZM193.37 38.6969L232.534 141.072L238.138 138.928L198.974 36.5531L193.37 38.6969ZM235.336 137H221.484V143H235.336V137ZM224.302 138.969L214.528 112.251L208.894 114.312L218.667 141.031L224.302 138.969ZM172.898 105.172H207.703V99.1719H172.898V105.172ZM210.522 101.145L193.085 53.2625L187.447 55.3156L204.884 103.198L210.522 101.145ZM187.445 53.2662L170.078 101.149L175.719 103.195L193.086 55.312L187.445 53.2662ZM282.516 76.8594L279.976 78.4567L282.523 82.5052L285.059 78.4502L282.516 76.8594ZM307.055 37.625V34.625H305.393L304.511 36.0342L307.055 37.625ZM322.945 37.625L325.475 39.237L328.414 34.625H322.945V37.625ZM290.602 88.3906L288.071 86.7786L287.041 88.3964L288.077 90.0108L290.602 88.3906ZM323.719 140V143H329.208L326.244 138.38L323.719 140ZM307.688 140L305.15 141.6L306.032 143H307.688V140ZM282.516 100.062L285.054 98.4629L282.523 94.4474L279.982 98.4565L282.516 100.062ZM257.203 140V143H258.854L259.737 141.606L257.203 140ZM241.242 140L238.719 138.377L235.746 143H241.242V140ZM274.43 88.3906L276.953 90.0132L277.993 88.3964L276.958 86.7761L274.43 88.3906ZM242.016 37.625V34.625H236.541L239.487 39.2395L242.016 37.625ZM257.836 37.625L260.375 36.0276L259.493 34.625H257.836V37.625ZM285.059 78.4502L309.598 39.2158L304.511 36.0342L279.972 75.2686L285.059 78.4502ZM307.055 40.625H322.945V34.625H307.055V40.625ZM320.415 36.013L288.071 86.7786L293.132 90.0026L325.475 39.237L320.415 36.013ZM288.077 90.0108L321.194 141.62L326.244 138.38L293.126 86.7704L288.077 90.0108ZM323.719 137H307.688V143H323.719V137ZM310.225 138.4L285.054 98.4629L279.978 101.662L305.15 141.6L310.225 138.4ZM279.982 98.4565L254.669 138.394L259.737 141.606L285.05 101.669L279.982 98.4565ZM257.203 137H241.242V143H257.203V137ZM243.766 141.623L276.953 90.0132L271.906 86.768L238.719 138.377L243.766 141.623ZM276.958 86.7761L244.544 36.0105L239.487 39.2395L271.901 90.0051L276.958 86.7761ZM242.016 40.625H257.836V34.625H242.016V40.625ZM255.297 39.2224L279.976 78.4567L285.055 75.262L260.375 36.0276L255.297 39.2224ZM353.883 140V143H356.883V140H353.883ZM340.383 140H337.383V143H340.383V140ZM340.383 37.625V34.625H337.383V37.625H340.383ZM353.883 37.625H356.883V34.625H353.883V37.625ZM353.883 137H340.383V143H353.883V137ZM343.383 140V37.625H337.383V140H343.383ZM340.383 40.625H353.883V34.625H340.383V40.625ZM350.883 37.625V140H356.883V37.625H350.883Z" fill="black"/>
</svg>
