<svg width="430" height="180" viewBox="0 0 430 180" fill="none" xmlns="http://www.w3.org/2000/svg">
<rect x="2.5" y="2.5" width="425" height="175" rx="27.5" fill="#B42E7E" stroke="black" stroke-width="5"/>
<path d="M297.182 90C297.182 136.392 260.428 174 215.091 174C169.753 174 133 136.392 133 90C133 43.6081 169.753 6 215.091 6C260.428 6 297.182 43.6081 297.182 90ZM165.836 90C165.836 117.835 187.888 140.4 215.091 140.4C242.293 140.4 264.345 117.835 264.345 90C264.345 62.1648 242.293 39.6 215.091 39.6C187.888 39.6 165.836 62.1648 165.836 90Z" fill="white"/>
<rect x="55" y="58" width="320" height="65" rx="1" fill="white"/>
<path d="M87.2656 75.1406V94.8076C87.2656 98.0752 86.2402 100.659 84.1895 102.56C82.1523 104.46 79.3633 105.41 75.8223 105.41C72.3359 105.41 69.5674 104.487 67.5166 102.642C65.4658 100.796 64.4199 98.2598 64.3789 95.0332V75.1406H70.5312V94.8486C70.5312 96.8037 70.9961 98.2324 71.9258 99.1348C72.8691 100.023 74.168 100.468 75.8223 100.468C79.2812 100.468 81.0381 98.6494 81.0928 95.0127V75.1406H87.2656ZM116.592 105H110.439L98.4629 85.3535V105H92.3105V75.1406H98.4629L110.46 94.8281V75.1406H116.592V105ZM121.965 105V75.1406H131.152C133.777 75.1406 136.122 75.7354 138.187 76.9248C140.265 78.1006 141.885 79.7822 143.047 81.9697C144.209 84.1436 144.79 86.6182 144.79 89.3936V90.7676C144.79 93.543 144.216 96.0107 143.067 98.1709C141.933 100.331 140.326 102.006 138.248 103.195C136.17 104.385 133.825 104.986 131.214 105H121.965ZM128.117 80.124V100.058H131.091C133.497 100.058 135.336 99.2715 136.607 97.6992C137.879 96.127 138.528 93.8779 138.556 90.9521V89.373C138.556 86.3379 137.927 84.041 136.669 82.4824C135.411 80.9102 133.572 80.124 131.152 80.124H128.117ZM167.246 92.0596H155.434V100.058H169.297V105H149.281V75.1406H169.256V80.124H155.434V87.2402H167.246V92.0596ZM183.96 94.0693H179.059V105H172.906V75.1406H184.001C187.528 75.1406 190.249 75.9268 192.163 77.499C194.077 79.0713 195.034 81.293 195.034 84.1641C195.034 86.2012 194.59 87.9033 193.701 89.2705C192.826 90.624 191.493 91.7041 189.702 92.5107L196.162 104.713V105H189.559L183.96 94.0693ZM179.059 89.0859H184.021C185.566 89.0859 186.763 88.6963 187.61 87.917C188.458 87.124 188.882 86.0371 188.882 84.6562C188.882 83.248 188.479 82.1406 187.672 81.334C186.879 80.5273 185.655 80.124 184.001 80.124H179.059V89.0859ZM223.355 101.227C222.248 102.553 220.683 103.585 218.659 104.323C216.636 105.048 214.394 105.41 211.933 105.41C209.349 105.41 207.079 104.85 205.124 103.729C203.183 102.594 201.679 100.953 200.612 98.8066C199.56 96.6602 199.02 94.1377 198.992 91.2393V89.209C198.992 86.2285 199.491 83.6514 200.489 81.4775C201.501 79.29 202.95 77.6221 204.837 76.4736C206.737 75.3115 208.959 74.7305 211.502 74.7305C215.043 74.7305 217.812 75.5781 219.808 77.2734C221.804 78.9551 222.986 81.4092 223.355 84.6357H217.367C217.094 82.9268 216.485 81.6758 215.542 80.8828C214.612 80.0898 213.327 79.6934 211.687 79.6934C209.595 79.6934 208.002 80.4795 206.908 82.0518C205.814 83.624 205.261 85.9619 205.247 89.0654V90.9727C205.247 94.1035 205.842 96.4688 207.031 98.0684C208.221 99.668 209.964 100.468 212.261 100.468C214.571 100.468 216.219 99.9756 217.203 98.9912V93.8438H211.604V89.3115H223.355V101.227ZM252.887 90.7471C252.887 93.6865 252.367 96.2637 251.328 98.4785C250.289 100.693 248.799 102.402 246.857 103.605C244.93 104.809 242.715 105.41 240.213 105.41C237.738 105.41 235.53 104.815 233.589 103.626C231.647 102.437 230.144 100.741 229.077 98.54C228.011 96.3252 227.471 93.7822 227.457 90.9111V89.4346C227.457 86.4951 227.983 83.9111 229.036 81.6826C230.103 79.4404 231.6 77.7246 233.527 76.5352C235.469 75.332 237.684 74.7305 240.172 74.7305C242.66 74.7305 244.868 75.332 246.796 76.5352C248.737 77.7246 250.234 79.4404 251.287 81.6826C252.354 83.9111 252.887 86.4883 252.887 89.4141V90.7471ZM246.652 89.3936C246.652 86.2627 246.092 83.8838 244.971 82.2568C243.85 80.6299 242.25 79.8164 240.172 79.8164C238.107 79.8164 236.515 80.623 235.394 82.2363C234.272 83.8359 233.705 86.1875 233.691 89.291V90.7471C233.691 93.7959 234.252 96.1611 235.373 97.8428C236.494 99.5244 238.107 100.365 240.213 100.365C242.277 100.365 243.863 99.5586 244.971 97.9453C246.078 96.3184 246.639 93.9531 246.652 90.8496V89.3936ZM268.411 94.0693H263.51V105H257.357V75.1406H268.452C271.979 75.1406 274.7 75.9268 276.614 77.499C278.528 79.0713 279.485 81.293 279.485 84.1641C279.485 86.2012 279.041 87.9033 278.152 89.2705C277.277 90.624 275.944 91.7041 274.153 92.5107L280.613 104.713V105H274.01L268.411 94.0693ZM263.51 89.0859H268.473C270.018 89.0859 271.214 88.6963 272.062 87.917C272.909 87.124 273.333 86.0371 273.333 84.6562C273.333 83.248 272.93 82.1406 272.123 81.334C271.33 80.5273 270.106 80.124 268.452 80.124H263.51V89.0859ZM306.781 75.1406V94.8076C306.781 98.0752 305.756 100.659 303.705 102.56C301.668 104.46 298.879 105.41 295.338 105.41C291.852 105.41 289.083 104.487 287.032 102.642C284.981 100.796 283.936 98.2598 283.895 95.0332V75.1406H290.047V94.8486C290.047 96.8037 290.512 98.2324 291.441 99.1348C292.385 100.023 293.684 100.468 295.338 100.468C298.797 100.468 300.554 98.6494 300.608 95.0127V75.1406H306.781ZM336.107 105H329.955L317.979 85.3535V105H311.826V75.1406H317.979L329.976 94.8281V75.1406H336.107V105ZM341.48 105V75.1406H350.668C353.293 75.1406 355.638 75.7354 357.702 76.9248C359.78 78.1006 361.4 79.7822 362.562 81.9697C363.725 84.1436 364.306 86.6182 364.306 89.3936V90.7676C364.306 93.543 363.731 96.0107 362.583 98.1709C361.448 100.331 359.842 102.006 357.764 103.195C355.686 104.385 353.341 104.986 350.729 105H341.48ZM347.633 80.124V100.058H350.606C353.013 100.058 354.852 99.2715 356.123 97.6992C357.395 96.127 358.044 93.8779 358.071 90.9521V89.373C358.071 86.3379 357.442 84.041 356.185 82.4824C354.927 80.9102 353.088 80.124 350.668 80.124H347.633Z" fill="black"/>
</svg>
