<svg width="430" height="180" viewBox="0 0 430 180" fill="none" xmlns="http://www.w3.org/2000/svg">
<rect x="2.5" y="2.5" width="425" height="175" rx="27.5" fill="#12A232" stroke="black" stroke-width="5"/>
<path d="M297.182 90C297.182 136.392 260.428 174 215.091 174C169.753 174 133 136.392 133 90C133 43.6081 169.753 6 215.091 6C260.428 6 297.182 43.6081 297.182 90ZM165.836 90C165.836 117.835 187.888 140.4 215.091 140.4C242.293 140.4 264.345 117.835 264.345 90C264.345 62.1648 242.293 39.6 215.091 39.6C187.888 39.6 165.836 62.1648 165.836 90Z" fill="white"/>
<rect x="55" y="58" width="320" height="65" rx="1" fill="white"/>
<path d="M158.062 116V70.5H174C179.521 70.5 183.708 71.5625 186.562 73.6875C189.417 75.7917 190.844 78.8854 190.844 82.9688C190.844 85.1979 190.271 87.1667 189.125 88.875C187.979 90.5625 186.385 91.8021 184.344 92.5938C186.677 93.1771 188.51 94.3542 189.844 96.125C191.198 97.8958 191.875 100.062 191.875 102.625C191.875 107 190.479 110.312 187.688 112.562C184.896 114.812 180.917 115.958 175.75 116H158.062ZM167.438 96.1875V108.469H175.469C177.677 108.469 179.396 107.948 180.625 106.906C181.875 105.844 182.5 104.385 182.5 102.531C182.5 98.3646 180.344 96.25 176.031 96.1875H167.438ZM167.438 89.5625H174.375C179.104 89.4792 181.469 87.5938 181.469 83.9062C181.469 81.8438 180.865 80.3646 179.656 79.4688C178.469 78.5521 176.583 78.0938 174 78.0938H167.438V89.5625ZM233.375 70.5V100.469C233.375 105.448 231.812 109.385 228.688 112.281C225.583 115.177 221.333 116.625 215.938 116.625C210.625 116.625 206.406 115.219 203.281 112.406C200.156 109.594 198.562 105.729 198.5 100.812V70.5H207.875V100.531C207.875 103.51 208.583 105.688 210 107.062C211.438 108.417 213.417 109.094 215.938 109.094C221.208 109.094 223.885 106.323 223.969 100.781V70.5H233.375ZM264.656 104.062C264.656 102.292 264.031 100.938 262.781 100C261.531 99.0417 259.281 98.0417 256.031 97C252.781 95.9375 250.208 94.8958 248.312 93.875C243.146 91.0833 240.562 87.3229 240.562 82.5938C240.562 80.1354 241.25 77.9479 242.625 76.0312C244.021 74.0938 246.01 72.5833 248.594 71.5C251.198 70.4167 254.115 69.875 257.344 69.875C260.594 69.875 263.49 70.4688 266.031 71.6562C268.573 72.8229 270.542 74.4792 271.938 76.625C273.354 78.7708 274.062 81.2083 274.062 83.9375H264.688C264.688 81.8542 264.031 80.2396 262.719 79.0938C261.406 77.9271 259.562 77.3438 257.188 77.3438C254.896 77.3438 253.115 77.8333 251.844 78.8125C250.573 79.7708 249.938 81.0417 249.938 82.625C249.938 84.1042 250.677 85.3438 252.156 86.3438C253.656 87.3438 255.854 88.2812 258.75 89.1562C264.083 90.7604 267.969 92.75 270.406 95.125C272.844 97.5 274.062 100.458 274.062 104C274.062 107.938 272.573 111.031 269.594 113.281C266.615 115.51 262.604 116.625 257.562 116.625C254.062 116.625 250.875 115.99 248 114.719C245.125 113.427 242.927 111.667 241.406 109.438C239.906 107.208 239.156 104.625 239.156 101.688H248.562C248.562 106.708 251.562 109.219 257.562 109.219C259.792 109.219 261.531 108.771 262.781 107.875C264.031 106.958 264.656 105.688 264.656 104.062Z" fill="black"/>
</svg>
